PathFileType	4	(X/Y/Z)	KinectSkeleton.trc																																																	
DataRate	CameraRate	NumFrames	NumMarkers	Units	OrigDataRate	OrigDataStartFrame	OrigNumFrames																																													
60	60	25	17	mm	60	181	300																																													
Frame#	Time	Neck			ShoulderMid			R.Shoulder			L.Shoulder			R.Elbow			L.Elbow			R.Wrist			L.Wrist			HipCenter			R.Hip			L.Hip			R.Knee			L.Knee			R.Ankle			L.Ankle			R.Foot			L.Foot		
		X1	Y1	Z1	X2	Y2	Z2	X3	Y3	Z3	X4	Y4	Z4	X5	Y5	Z5	X6	Y6	Z6	X7	Y7	Z7	X8	Y8	Z8	X9	Y9	Z9	X10	Y10	Z10	X11	Y11	Z11	X12	Y12	Z12	X13	Y13	Z13	X14	Y14	Z14	X15	Y15	Z15	X16	Y16	Z16	X17	Y17	Z17
																																																				
181	10.901	-1476	754.562	-139.094	-1476	754.562	-139.094	-1463.819	680.419	24.314	-1467.474	663.327	-306.046	-1540.771	415.01	98.399	-1550.861	397.916	-344.047	-1503.105	181.27	128.404	-1514.109	165.135	-344.98	-1504.852	211.671	-100.869	-1508.405	218.454	-17.675	-1500.911	204.148	-193.126	-1541.798	-186.439	-25.015	-1584.551	-193.355	-171.699	-1654.65	-562.185	-45.053	-1681.836	-569.075	-149.436	-1542.819	-696.567	-34.721	-1531.993	-685.576	-163.865
182	10.949	-1468.505	750.044	-145.115	-1468.505	750.044	-145.115	-1459.041	678.865	17.873	-1466.124	662.644	-312.051	-1534.34	419.229	104.134	-1541.062	398.614	-359.291	-1490.78	190.315	145.708	-1499.21	169.082	-373.4	-1498.739	211.416	-104.654	-1502.831	218.774	-22.22	-1494.201	203.258	-196.071	-1532.833	-183.127	-22.289	-1579.139	-190.556	-174.366	-1649.092	-554.632	-39.06	-1678.072	-562.574	-152.362	-1551.929	-698.518	-33.641	-1535.804	-686.361	-161.378
183	11.009	-1457.56	748.155	-153.511	-1457.56	748.155	-153.511	-1450.726	677.23	11.837	-1457.683	662.04	-322.917	-1520.407	418.4	114.012	-1533.684	398.655	-387.052	-1476.991	190.422	172.306	-1488.922	168.737	-418.165	-1491.667	203.609	-111.083	-1494.621	210.98	-27.693	-1488.391	195.435	-203.559	-1510.369	-196.075	-20.908	-1576.098	-201.758	-173.717	-1649.432	-564.452	-31.115	-1679.562	-576.416	-144.422	-1539.675	-701.29	-23.124	-1528.973	-692.178	-163.107
184	11.055	-1454.302	747.574	-156.481	-1454.302	747.574	-156.481	-1449.33	678.053	9.235	-1455.45	661.247	-325.502	-1509.989	421.924	122.491	-1521.413	400.323	-407.082	-1464.177	196.751	188.295	-1472.273	173.548	-450.335	-1487.571	203.222	-118.173	-1491.714	209.426	-34.83	-1482.976	196.343	-210.596	-1487.159	-197.332	-22.479	-1574.49	-199.379	-178.781	-1640.462	-559.503	-34.123	-1682.488	-572.219	-148.355	-1539.49	-702.355	-21.247	-1530.787	-687.407	-156.477
185	11.1	-1442.314	739.976	-161.287	-1442.314	739.976	-161.287	-1442.641	671.073	4.781	-1444.24	652.384	-329.589	-1489.674	419.869	134.05	-1507.969	396.318	-426.427	-1447.997	204.308	228.238	-1446.739	180.754	-500.18	-1479.142	196.109	-122.031	-1484.017	202.307	-38.769	-1473.736	189.236	-214.364	-1423.603	-199.689	-24.335	-1574.635	-203.558	-177.648	-1601.747	-550.275	-26.488	-1698.654	-570.858	-143.629	-1527.937	-709.3	-26.632	-1540.059	-676.327	-149.513
186	11.146	-1443.284	739.813	-164.688	-1443.284	739.813	-164.688	-1441.686	666.514	0.943	-1436.523	654.556	-335.06	-1475.156	419.146	144.805	-1497.512	401.822	-446.232	-1418.621	209.893	248.604	-1437.086	184.063	-518.704	-1477.571	192.351	-127.22	-1480.254	198.477	-43.354	-1474.596	185.558	-220.225	-1392.414	-200.857	-27.385	-1570.771	-210.759	-181.719	-1587.805	-544.752	-19.714	-1681.844	-584.317	-144.626	-1517.916	-706.526	-26.737	-1530.154	-701.428	-149.156
187	11.194	-1431.013	736.747	-168.142	-1431.013	736.747	-168.142	-1426.594	663.824	-4.068	-1425.273	656.082	-339.492	-1448.817	430.088	160.016	-1469.235	412.327	-472.465	-1385.135	230.59	275.063	-1404.862	202.713	-559.589	-1463.033	192.724	-128.698	-1459.935	200.072	-45.434	-1466.468	184.575	-221.035	-1340.289	-188.48	-30.639	-1562.063	-209.611	-184.4	-1521.845	-537.365	-27.415	-1674.516	-580.402	-147.544	-1426.179	-684.217	-22.085	-1525.26	-696.947	-169.015
188	11.239	-1422.421	735.215	-169.481	-1422.421	735.215	-169.481	-1415.66	662.674	-5.828	-1416.107	653.996	-339.974	-1438.36	431.217	160.047	-1460.473	415.424	-480.384	-1379.083	232.253	277.004	-1395.999	209.755	-574.787	-1451.581	192.354	-130.279	-1442.947	198.977	-47.575	-1461.155	185.01	-221.995	-1325.435	-189.306	-42.076	-1557.25	-207.767	-183.915	-1507.342	-536.774	-36.937	-1669.174	-577.342	-144.531	-1411.762	-683.194	-38.82	-1525.775	-699.059	-171.823
189	11.285	-1412.746	739.596	-172.171	-1412.746	739.596	-172.171	-1404.977	664.887	-7.222	-1407.242	654.545	-343.829	-1426.742	431.94	162.343	-1447.158	414.539	-489.509	-1363.307	233.729	283.924	-1380.682	209.014	-589.461	-1443.871	190.411	-133.975	-1435.349	197.079	-50.295	-1453.323	183.015	-226.773	-1304.642	-191.647	-65.152	-1553.102	-213.467	-186.5	-1480.785	-546.887	-51.408	-1668.905	-586.202	-143.965	-1377.331	-690.297	-55.505	-1518.803	-702.717	-173.165
190	11.331	-1390.024	738.272	-173.61	-1390.024	738.272	-173.61	-1378.733	660.817	-10.898	-1385.229	657.246	-346.121	-1404.02	431.93	161.569	-1431.725	420.136	-492.22	-1341.092	234.254	282.23	-1353.734	221.414	-595.132	-1418.264	191.126	-139.438	-1406.203	197.251	-56.521	-1431.638	184.333	-231.391	-1291.934	-194.578	-75.987	-1546.847	-205.524	-185.958	-1395.796	-575.721	-77.002	-1688.258	-566.694	-137.115	-1256.158	-683.04	-76.216	-1531.492	-674.214	-159.594
191	11.376	-1371.27	736.107	-171.996	-1371.27	736.107	-171.996	-1364.588	655.511	-11.792	-1373.381	660.102	-345.815	-1390.233	429.061	161.231	-1415.517	427.068	-496.751	-1328.02	232.127	280.878	-1344.878	225.448	-596.314	-1407.766	191.966	-145.669	-1394.671	197.417	-63.326	-1422.288	185.921	-236.985	-1286.366	-193.668	-85.121	-1497.021	-210.859	-187.093	-1350.829	-581.226	-87.768	-1657.948	-559.658	-127.024	-1206.316	-680.198	-88.427	-1523.582	-692.247	-151.713
192	11.422	-1337.3	734.135	-176.802	-1337.3	734.135	-176.802	-1333.905	654.364	-15.425	-1347.377	663.172	-352.837	-1363.361	423.004	152.664	-1386.231	426.028	-500.693	-1314.235	221.654	273.3	-1318.955	221.401	-599.086	-1382.547	187.811	-151.3	-1366.32	192.862	-69.088	-1400.543	182.209	-242.471	-1285.976	-206.865	-90.972	-1493.972	-213.174	-197.541	-1252.669	-599.981	-104.216	-1683.544	-547.963	-129.892	-1097.988	-683.22	-114.964	-1593.513	-715.884	-146.73
193	11.47	-1326.104	734.858	-180.096	-1326.104	734.858	-180.096	-1319.079	653.43	-17.252	-1331.826	662.267	-357.835	-1352.903	417.676	149.269	-1372.459	422.852	-507.418	-1302.479	211.263	265.95	-1301.102	215.923	-604.332	-1370.559	182.259	-160.008	-1353.452	185.353	-76.946	-1389.53	178.828	-252.121	-1269.934	-217.914	-104.421	-1470.476	-224.755	-216.195	-1220.856	-613.253	-127.319	-1676.701	-555.518	-152.985	-1057.543	-683.68	-131.224	-1588.678	-726.942	-168.819
194	11.514	-1308.163	719.997	-177.412	-1308.163	719.997	-177.412	-1302.015	641.521	-16.978	-1313.579	654.777	-354.676	-1338.189	407.984	144.673	-1354.49	421.321	-505.63	-1288.117	203.055	256.647	-1290.945	215.47	-601.609	-1351.131	175.364	-166.334	-1334.263	177.537	-84.473	-1369.838	172.953	-257.115	-1244.132	-217.784	-115.489	-1412.467	-231.681	-270.323	-1203.209	-608.018	-140.063	-1613.377	-562.288	-229.161	-1046.181	-685.284	-149.618	-1535.383	-734.624	-251.686
195	11.56	-1273.109	722.76	-179.753	-1273.109	722.76	-179.753	-1262.013	641.72	-18.388	-1271.764	656.06	-358.911	-1306.197	400.102	134.891	-1323.871	418.689	-506.158	-1260.553	188.036	241.059	-1266.612	207.085	-600.088	-1311.082	171.976	-175.324	-1294.173	172.489	-92.488	-1329.833	171.407	-267.187	-1214.085	-227.426	-144.869	-1369.936	-237.184	-297.177	-1272.702	-619.609	-173.152	-1569.307	-574.669	-263.633	-1132.21	-725.509	-194.565	-1482.22	-742.377	-301.015
196	11.606	-1254.608	731.638	-168.392	-1254.608	731.638	-168.392	-1243.555	642.996	-8.563	-1249.536	665.409	-351.522	-1292.623	391.777	134.801	-1304.679	424.626	-499.467	-1251.384	172.552	235.446	-1261.58	208.236	-598.055	-1288.358	173.836	-182.082	-1270.552	172.657	-98.29	-1308.104	175.143	-275.005	-1202.865	-234.872	-152.676	-1358.392	-236.889	-316.168	-1288.414	-627.605	-179.513	-1552.7	-583.959	-289.64	-1154.572	-744.475	-205.602	-1460.827	-750.173	-334.741
197	11.651	-1232.973	728.947	-167.919	-1232.973	728.947	-167.919	-1222.65	644.003	-7.32	-1223.829	667.361	-351.237	-1270.991	390.776	130.673	-1285.769	429.736	-499.747	-1231.327	170.775	228.243	-1242.487	214.275	-598.332	-1261.827	173.306	-189.784	-1244.484	170.129	-106.237	-1281.06	176.83	-282.435	-1188.811	-238.684	-153.616	-1343.438	-231.96	-325.375	-1286.892	-627.245	-178.234	-1530.542	-582.059	-308.366	-1160.684	-751.291	-205.143	-1439.766	-747.885	-354.313
198	11.697	-1182.747	727.092	-173.428	-1182.747	727.092	-173.428	-1172.445	635.202	-18.673	-1166.96	670.041	-354.397	-1224.267	385.336	114.903	-1242.805	444.646	-507.216	-1188.537	168.702	212.466	-1199.759	232.153	-603.573	-1207.491	180.275	-194.495	-1193.038	178.196	-111.664	-1223.518	182.579	-286.353	-1158.704	-226.205	-162.905	-1293.173	-219.366	-250.373	-1276.576	-603.25	-181.786	-1511.417	-532.17	-162.641	-1150.003	-723.138	-208.119	-1429.959	-700.385	-204.985
199	11.743	-1156.382	741.236	-176.084	-1156.382	741.236	-176.084	-1147.507	646.297	-20.216	-1144.304	679.715	-359.032	-1201.736	391.185	110.189	-1221.432	449.416	-510.405	-1165.598	169.992	204.694	-1179.134	236.455	-613.129	-1185.556	187.773	-197.164	-1176.306	186.443	-112.528	-1195.814	189.247	-291.022	-1150.687	-224.054	-161.017	-1246.831	-220.589	-254.725	-1271.242	-604.762	-189.977	-1490.041	-529.153	-203.465	-1139.593	-724.84	-200.551	-1405.996	-703.587	-215.676
200	11.791	-1087.69	721.032	-183.523	-1087.69	721.032	-183.523	-1091.812	623.435	-36.638	-1091.065	668.695	-362.035	-1150.793	382.211	94.72	-1180.297	458.905	-517.099	-1115.596	171.899	191.906	-1136.065	257.571	-622.262	-1132.398	187.787	-209.029	-1128.053	187.089	-127.111	-1137.216	188.562	-299.873	-1113.404	-209.95	-163.781	-1199.955	-205.262	-322.442	-1157.458	-592.078	-192.707	-1466.238	-470.847	-257.055	-1025.529	-701.827	-203.84	-1433.338	-654.679	-264.828
201	11.837	-1066.92	717.905	-186.844	-1066.92	717.905	-186.844	-1070.79	614.769	-44.667	-1070.895	662.957	-363.655	-1128.164	375.201	85.631	-1155.599	459.496	-525.623	-1092.012	164.727	177.456	-1115.843	260.526	-632.982	-1113.157	189.478	-213.508	-1111.484	189.182	-132.147	-1115.013	189.807	-303.734	-1110.272	-205.517	-161.603	-1158.424	-203.215	-329.092	-1138.089	-585.91	-192.425	-1422.578	-470.53	-282.663	-999.778	-685.304	-182.806	-1384.007	-651.503	-294.485
202	11.883	-1046.831	718.218	-190.028	-1046.831	718.218	-190.028	-1050.793	618.063	-44.121	-1050.94	669.169	-369.952	-1107.223	370.857	78.981	-1131.032	462.679	-535.704	-1073.091	153.954	163.065	-1091.09	261.126	-643.821	-1094.813	183.725	-220.262	-1095.003	183.054	-137.956	-1094.603	184.47	-311.537	-1090.253	-215.172	-178.643	-1122.109	-213.129	-353.555	-1184.37	-587.972	-222.851	-1403.231	-465.55	-290.756	-1091.988	-733.442	-231.54	-1441.394	-649.139	-287.755
203	11.933	-1006.316	720.051	-205.109	-1006.316	720.051	-205.109	-1012.693	615.426	-61.547	-1009.799	667.81	-384.508	-1065.781	365.121	56.724	-1092.415	463.517	-551.764	-1021.404	148.699	137.224	-1036.271	269.287	-665.944	-1061.554	186.42	-240.127	-1065.054	184.748	-157.904	-1057.672	188.274	-331.309	-1079.801	-214.635	-181.485	-1064.797	-209.519	-379.645	-1210.155	-576.881	-221.426	-1326.398	-488.303	-356.159	-1122.304	-725.364	-224.559	-1330.235	-675.753	-360.839
204	11.992	-969.731	704.065	-211.377	-969.731	704.065	-211.377	-981.29	602.872	-70.602	-969.306	650.483	-387.063	-1033.42	351.342	30.748	-1050.337	458.28	-560.104	-981.664	135.725	93.128	-1008.65	264.166	-671.118	-1028.906	183.668	-263.646	-1037.618	179.066	-183.612	-1019.244	188.772	-352.402	-1040.805	-213.041	-191.641	-999.103	-196.886	-423.225	-1191.903	-557.785	-237.41	-1190.574	-516.98	-464.144	-1100.147	-699.502	-228.908	-1112.505	-682.097	-484.11
205	12.037	-944.865	721.775	-228.792	-944.865	721.775	-228.792	-962.302	617.289	-85.497	-944.029	659.609	-406.189	-1018.56	357.865	10.032	-1038.491	455.302	-567.433	-965.022	135.426	65.126	-986.092	256.313	-675.425	-1019.359	190.492	-272.582	-1032.963	187.991	-191.368	-1004.274	193.265	-362.645	-1022.961	-212.452	-201.05	-983.246	-200.271	-437.357	-1365.644	-391.941	-221.36	-1181.39	-527.614	-460.544	-1374.275	-564.408	-219.049	-1091.123	-689.421	-490.601
